<?xml version="1.0" encoding="UTF-8"?>
<svg xmlns:xhtml="http://www.w3.org/1999/xhtml" xmlns:xlink="http://www.w3.org/1999/xlink" xmlns="http://www.w3.org/2000/svg" id="mermaid-svg-97" width="100%" class="flowchart" style="max-width: 100%;" viewBox="-37.463906860351564 -37.463906860351564 824.2059509277344 1080.927813720703" height="100%"><style>#mermaid-svg-97{font-family:"trebuchet ms",verdana,arial,sans-serif;font-size:16px;fill:#ccc;}@keyframes edge-animation-frame{from{stroke-dashoffset:0;}}@keyframes dash{to{stroke-dashoffset:0;}}#mermaid-svg-97 .edge-animation-slow{stroke-dasharray:9,5!important;stroke-dashoffset:900;animation:dash 50s linear infinite;stroke-linecap:round;}#mermaid-svg-97 .edge-animation-fast{stroke-dasharray:9,5!important;stroke-dashoffset:900;animation:dash 20s linear infinite;stroke-linecap:round;}#mermaid-svg-97 .error-icon{fill:#a44141;}#mermaid-svg-97 .error-text{fill:#ddd;stroke:#ddd;}#mermaid-svg-97 .edge-thickness-normal{stroke-width:1px;}#mermaid-svg-97 .edge-thickness-thick{stroke-width:3.5px;}#mermaid-svg-97 .edge-pattern-solid{stroke-dasharray:0;}#mermaid-svg-97 .edge-thickness-invisible{stroke-width:0;fill:none;}#mermaid-svg-97 .edge-pattern-dashed{stroke-dasharray:3;}#mermaid-svg-97 .edge-pattern-dotted{stroke-dasharray:2;}#mermaid-svg-97 .marker{fill:lightgrey;stroke:lightgrey;}#mermaid-svg-97 .marker.cross{stroke:lightgrey;}#mermaid-svg-97 svg{font-family:"trebuchet ms",verdana,arial,sans-serif;font-size:16px;}#mermaid-svg-97 p{margin:0;}#mermaid-svg-97 .label{font-family:"trebuchet ms",verdana,arial,sans-serif;color:#ccc;}#mermaid-svg-97 .cluster-label text{fill:#F9FFFE;}#mermaid-svg-97 .cluster-label span{color:#F9FFFE;}#mermaid-svg-97 .cluster-label span p{background-color:transparent;}#mermaid-svg-97 .label text,#mermaid-svg-97 span{fill:#ccc;color:#ccc;}#mermaid-svg-97 .node rect,#mermaid-svg-97 .node circle,#mermaid-svg-97 .node ellipse,#mermaid-svg-97 .node polygon,#mermaid-svg-97 .node path{fill:#1f2020;stroke:#ccc;stroke-width:1px;}#mermaid-svg-97 .rough-node .label text,#mermaid-svg-97 .node .label text,#mermaid-svg-97 .image-shape .label,#mermaid-svg-97 .icon-shape .label{text-anchor:middle;}#mermaid-svg-97 .node .katex path{fill:#000;stroke:#000;stroke-width:1px;}#mermaid-svg-97 .rough-node .label,#mermaid-svg-97 .node .label,#mermaid-svg-97 .image-shape .label,#mermaid-svg-97 .icon-shape .label{text-align:center;}#mermaid-svg-97 .node.clickable{cursor:pointer;}#mermaid-svg-97 .root .anchor path{fill:lightgrey!important;stroke-width:0;stroke:lightgrey;}#mermaid-svg-97 .arrowheadPath{fill:lightgrey;}#mermaid-svg-97 .edgePath .path{stroke:lightgrey;stroke-width:2.0px;}#mermaid-svg-97 .flowchart-link{stroke:lightgrey;fill:none;}#mermaid-svg-97 .edgeLabel{background-color:hsl(0, 0%, 34.4117647059%);text-align:center;}#mermaid-svg-97 .edgeLabel p{background-color:hsl(0, 0%, 34.4117647059%);}#mermaid-svg-97 .edgeLabel rect{opacity:0.5;background-color:hsl(0, 0%, 34.4117647059%);fill:hsl(0, 0%, 34.4117647059%);}#mermaid-svg-97 .labelBkg{background-color:rgba(87.75, 87.75, 87.75, 0.5);}#mermaid-svg-97 .cluster rect{fill:hsl(180, 1.5873015873%, 28.3529411765%);stroke:rgba(255, 255, 255, 0.25);stroke-width:1px;}#mermaid-svg-97 .cluster text{fill:#F9FFFE;}#mermaid-svg-97 .cluster span{color:#F9FFFE;}#mermaid-svg-97 div.mermaidTooltip{position:absolute;text-align:center;max-width:200px;padding:2px;font-family:"trebuchet ms",verdana,arial,sans-serif;font-size:12px;background:hsl(20, 1.5873015873%, 12.3529411765%);border:1px solid rgba(255, 255, 255, 0.25);border-radius:2px;pointer-events:none;z-index:100;}#mermaid-svg-97 .flowchartTitleText{text-anchor:middle;font-size:18px;fill:#ccc;}#mermaid-svg-97 rect.text{fill:none;stroke-width:0;}#mermaid-svg-97 .icon-shape,#mermaid-svg-97 .image-shape{background-color:hsl(0, 0%, 34.4117647059%);text-align:center;}#mermaid-svg-97 .icon-shape p,#mermaid-svg-97 .image-shape p{background-color:hsl(0, 0%, 34.4117647059%);padding:2px;}#mermaid-svg-97 .icon-shape rect,#mermaid-svg-97 .image-shape rect{opacity:0.5;background-color:hsl(0, 0%, 34.4117647059%);fill:hsl(0, 0%, 34.4117647059%);}#mermaid-svg-97 .label-icon{display:inline-block;height:1em;overflow:visible;vertical-align:-0.125em;}#mermaid-svg-97 .node .label-icon path{fill:currentColor;stroke:revert;stroke-width:revert;}#mermaid-svg-97 :root{--mermaid-font-family:"trebuchet ms",verdana,arial,sans-serif;}</style><g><marker id="mermaid-svg-97_flowchart-v2-pointEnd" class="marker flowchart-v2" viewBox="0 0 10 10" refX="5" refY="5" markerUnits="userSpaceOnUse" markerWidth="8" markerHeight="8" orient="auto"><path d="M 0 0 L 10 5 L 0 10 z" class="arrowMarkerPath" style="stroke-width: 1; stroke-dasharray: 1, 0;"/></marker><marker id="mermaid-svg-97_flowchart-v2-pointStart" class="marker flowchart-v2" viewBox="0 0 10 10" refX="4.5" refY="5" markerUnits="userSpaceOnUse" markerWidth="8" markerHeight="8" orient="auto"><path d="M 0 5 L 10 10 L 10 0 z" class="arrowMarkerPath" style="stroke-width: 1; stroke-dasharray: 1, 0;"/></marker><marker id="mermaid-svg-97_flowchart-v2-circleEnd" class="marker flowchart-v2" viewBox="0 0 10 10" refX="11" refY="5" markerUnits="userSpaceOnUse" markerWidth="11" markerHeight="11" orient="auto"><circle cx="5" cy="5" r="5" class="arrowMarkerPath" style="stroke-width: 1; stroke-dasharray: 1, 0;"/></marker><marker id="mermaid-svg-97_flowchart-v2-circleStart" class="marker flowchart-v2" viewBox="0 0 10 10" refX="-1" refY="5" markerUnits="userSpaceOnUse" markerWidth="11" markerHeight="11" orient="auto"><circle cx="5" cy="5" r="5" class="arrowMarkerPath" style="stroke-width: 1; stroke-dasharray: 1, 0;"/></marker><marker id="mermaid-svg-97_flowchart-v2-crossEnd" class="marker cross flowchart-v2" viewBox="0 0 11 11" refX="12" refY="5.2" markerUnits="userSpaceOnUse" markerWidth="11" markerHeight="11" orient="auto"><path d="M 1,1 l 9,9 M 10,1 l -9,9" class="arrowMarkerPath" style="stroke-width: 2; stroke-dasharray: 1, 0;"/></marker><marker id="mermaid-svg-97_flowchart-v2-crossStart" class="marker cross flowchart-v2" viewBox="0 0 11 11" refX="-1" refY="5.2" markerUnits="userSpaceOnUse" markerWidth="11" markerHeight="11" orient="auto"><path d="M 1,1 l 9,9 M 10,1 l -9,9" class="arrowMarkerPath" style="stroke-width: 2; stroke-dasharray: 1, 0;"/></marker><g class="root"><g class="clusters"><g class="cluster" id="Persistence_Layer" data-look="classic"><rect style="fill:#fdf0ff !important;stroke:#8e44ad !important;stroke-width:2px !important" x="79.73125076293945" y="566" width="589.4874992370605" height="432"/><g class="cluster-label" transform="translate(298.4499988555908, 566)"><foreignObject width="152.0500030517578" height="24"><div xmlns="http://www.w3.org/1999/xhtml" style="display: table-cell; white-space: nowrap; line-height: 1.5; max-width: 200px; text-align: center;"><span class="nodeLabel" style="color:#000000 !important"><p>💾 Persistence Layer</p></span></div></foreignObject></g></g><g class="cluster" id="Domain_Layer" data-look="classic"><rect style="fill:#fff9f0 !important;stroke:#e67e22 !important;stroke-width:2px !important" x="18.009376525878906" y="388" width="712.2156295776367" height="128"/><g class="cluster-label" transform="translate(311.9421920776367, 388)"><foreignObject width="124.3499984741211" height="24"><div xmlns="http://www.w3.org/1999/xhtml" style="display: table-cell; white-space: nowrap; line-height: 1.5; max-width: 200px; text-align: center;"><span class="nodeLabel" style="color:#000000 !important"><p>🧱 Domain Layer</p></span></div></foreignObject></g></g><g class="cluster" id="Service_Layer" data-look="classic"><rect style="fill:#f0fff4 !important;stroke:#2e8b57 !important;stroke-width:2px !important" x="8" y="186" width="733.278133392334" height="152"/><g class="cluster-label" transform="translate(313.31406593322754, 186)"><foreignObject width="122.6500015258789" height="24"><div xmlns="http://www.w3.org/1999/xhtml" style="display: table-cell; white-space: nowrap; line-height: 1.5; max-width: 200px; text-align: center;"><span class="nodeLabel" style="color:#000000 !important"><p>⚙️  Service Layer</p></span></div></foreignObject></g></g><g class="cluster" id="CLI_Layer" data-look="classic"><rect style="fill:#f0f4ff !important;stroke:#4a6cf7 !important;stroke-width:2px !important" x="69.73125076293945" y="8" width="622.8843727111816" height="128"/><g class="cluster-label" transform="translate(334.6296863555908, 8)"><foreignObject width="93.0875015258789" height="24"><div xmlns="http://www.w3.org/1999/xhtml" style="display: table-cell; white-space: nowrap; line-height: 1.5; max-width: 200px; text-align: center;"><span class="nodeLabel" style="color:#000000 !important"><p>🖥️  CLI Layer</p></span></div></foreignObject></g></g></g><g class="edgePaths"><path d="M252.55,102.152L231.741,107.794C210.931,113.435,169.313,124.717,148.503,134.525C127.694,144.333,127.694,152.667,127.694,161C127.694,169.333,127.694,177.667,127.694,185.333C127.694,193,127.694,200,127.694,203.5L127.694,207" id="L_U_AS_0" class="edge-thickness-normal edge-pattern-solid edge-thickness-normal edge-pattern-solid flowchart-link" style="" marker-end="url(#mermaid-svg-97_flowchart-v2-pointEnd)"/><path d="M475,100.846L497.591,106.705C520.182,112.564,565.365,124.282,587.956,134.308C610.547,144.333,610.547,152.667,610.547,161C610.547,169.333,610.547,177.667,610.547,185.333C610.547,193,610.547,200,610.547,203.5L610.547,207" id="L_U_TS_0" class="edge-thickness-normal edge-pattern-solid edge-thickness-normal edge-pattern-solid flowchart-link" style="" marker-end="url(#mermaid-svg-97_flowchart-v2-pointEnd)"/><path d="M112.662,313L111.434,317.167C110.206,321.333,107.75,329.667,106.522,338C105.294,346.333,105.294,354.667,105.294,363C105.294,371.333,105.294,379.667,107.184,387.411C109.074,395.154,112.854,402.309,114.744,405.886L116.634,409.463" id="L_AS_Acc_0" class="edge-thickness-normal edge-pattern-solid edge-thickness-normal edge-pattern-solid flowchart-link" style="" marker-end="url(#mermaid-svg-97_flowchart-v2-pointEnd)"/><path d="M199.574,313L205.447,317.167C211.319,321.333,223.064,329.667,228.937,338C234.809,346.333,234.809,354.667,234.809,363C234.809,371.333,234.809,379.667,242.177,387.691C249.544,395.715,264.278,403.43,271.645,407.287L279.012,411.145" id="L_AS_Mon_0" class="edge-thickness-normal edge-pattern-solid edge-thickness-normal edge-pattern-solid flowchart-link" style="" marker-end="url(#mermaid-svg-97_flowchart-v2-pointEnd)"/><path d="M212.387,286.766L241.589,295.305C270.791,303.844,329.194,320.922,358.395,333.628C387.597,346.333,387.597,354.667,387.597,363C387.597,371.333,387.597,379.667,410.95,390.452C434.303,401.238,481.008,414.477,504.361,421.096L527.714,427.715" id="L_AS_Tx_0" class="edge-thickness-normal edge-pattern-solid edge-thickness-normal edge-pattern-solid flowchart-link" style="" marker-end="url(#mermaid-svg-97_flowchart-v2-pointEnd)"/><path d="M514.816,297.849L496.946,304.541C479.076,311.233,443.336,324.616,425.467,335.475C407.597,346.333,407.597,354.667,407.597,363C407.597,371.333,407.597,379.667,377.847,390.925C348.098,402.183,288.599,416.366,258.85,423.457L229.1,430.549" id="L_TS_Acc_0" class="edge-thickness-normal edge-pattern-solid edge-thickness-normal edge-pattern-solid flowchart-link" style="" marker-end="url(#mermaid-svg-97_flowchart-v2-pointEnd)"/><path d="M554.189,313L549.585,317.167C544.98,321.333,535.771,329.667,531.167,338C526.563,346.333,526.563,354.667,526.563,363C526.563,371.333,526.563,379.667,512.571,389.116C498.58,398.564,470.597,409.129,456.605,414.411L442.614,419.693" id="L_TS_Mon_0" class="edge-thickness-normal edge-pattern-solid edge-thickness-normal edge-pattern-solid flowchart-link" style="" marker-end="url(#mermaid-svg-97_flowchart-v2-pointEnd)"/><path d="M644.947,313L647.757,317.167C650.568,321.333,656.188,329.667,658.999,338C661.809,346.333,661.809,354.667,661.809,363C661.809,371.333,661.809,379.667,659.06,387.468C656.31,395.27,650.81,402.54,648.06,406.175L645.31,409.81" id="L_TS_Tx_0" class="edge-thickness-normal edge-pattern-solid edge-thickness-normal edge-pattern-solid flowchart-link" style="" marker-end="url(#mermaid-svg-97_flowchart-v2-pointEnd)"/><path d="M137.119,491L136.907,495.167C136.694,499.333,136.269,507.667,136.056,516C135.844,524.333,135.844,532.667,135.844,541C135.844,549.333,135.844,557.667,135.844,572.5C135.844,587.333,135.844,608.667,135.844,632C135.844,655.333,135.844,680.667,154.84,700.046C173.836,719.424,211.827,732.849,230.823,739.561L249.819,746.273" id="L_Acc_Repo_0" class="edge-thickness-normal edge-pattern-solid edge-thickness-normal edge-pattern-solid flowchart-link" style="" marker-end="url(#mermaid-svg-97_flowchart-v2-pointEnd)"/><path d="M203.52,491L210.402,495.167C217.283,499.333,231.046,507.667,237.928,516C244.809,524.333,244.809,532.667,244.809,541C244.809,549.333,244.809,557.667,257.939,566.248C271.07,574.829,297.33,583.658,310.46,588.072L323.59,592.486" id="L_Acc_Logger_0" class="edge-thickness-normal edge-pattern-solid edge-thickness-normal edge-pattern-solid flowchart-link" style="" marker-end="url(#mermaid-svg-97_flowchart-v2-pointEnd)"/><path d="M300.837,491L294.833,495.167C288.828,499.333,276.819,507.667,270.814,516C264.809,524.333,264.809,532.667,264.809,541C264.809,549.333,264.809,557.667,264.809,572.5C264.809,587.333,264.809,608.667,264.809,632C264.809,655.333,264.809,680.667,271.297,699.059C277.785,717.451,290.761,728.902,297.249,734.628L303.736,740.353" id="L_Mon_Repo_0" class="edge-thickness-normal edge-pattern-solid edge-thickness-normal edge-pattern-solid flowchart-link" style="" marker-end="url(#mermaid-svg-97_flowchart-v2-pointEnd)"/><path d="M404.65,491L409.736,495.167C414.823,499.333,424.996,507.667,430.082,516C435.169,524.333,435.169,532.667,435.169,541C435.169,549.333,435.169,557.667,435.169,565.333C435.169,573,435.169,580,435.169,583.5L435.169,587" id="L_Mon_Logger_0" class="edge-thickness-normal edge-pattern-solid edge-thickness-normal edge-pattern-solid flowchart-link" style="" marker-end="url(#mermaid-svg-97_flowchart-v2-pointEnd)"/><path d="M591.799,491L589.492,495.167C587.185,499.333,582.571,507.667,580.263,516C577.956,524.333,577.956,532.667,577.956,541C577.956,549.333,577.956,557.667,577.956,572.5C577.956,587.333,577.956,608.667,577.956,632C577.956,655.333,577.956,680.667,556.973,700.358C535.99,720.048,494.025,734.097,473.042,741.121L452.059,748.145" id="L_Tx_Repo_0" class="edge-thickness-normal edge-pattern-solid edge-thickness-normal edge-pattern-solid flowchart-link" style="" marker-end="url(#mermaid-svg-97_flowchart-v2-pointEnd)"/><path d="M619.488,491L620.139,495.167C620.79,499.333,622.092,507.667,622.743,516C623.394,524.333,623.394,532.667,623.394,541C623.394,549.333,623.394,557.667,610.619,566.177C597.844,574.688,572.293,583.375,559.518,587.719L546.743,592.063" id="L_Tx_Logger_0" class="edge-thickness-normal edge-pattern-solid edge-thickness-normal edge-pattern-solid flowchart-link" style="" marker-end="url(#mermaid-svg-97_flowchart-v2-pointEnd)"/><path d="M435.169,669L435.169,675.167C435.169,681.333,435.169,693.667,428.828,705.553C422.488,717.44,409.807,728.88,403.467,734.6L397.127,740.321" id="L_Logger_Repo_0" class="edge-thickness-normal edge-pattern-solid edge-thickness-normal edge-pattern-solid flowchart-link" style="" marker-end="url(#mermaid-svg-97_flowchart-v2-pointEnd)"/><path d="M451.238,895L467.099,888.833C482.959,882.667,514.681,870.333,514.807,858.049C514.933,845.765,483.464,833.529,467.729,827.412L451.994,821.294" id="L_Recovery_Repo_0" class="edge-thickness-normal edge-pattern-solid edge-thickness-normal edge-pattern-solid flowchart-link" style="" marker-end="url(#mermaid-svg-97_flowchart-v2-pointEnd)"/><path d="M256.313,821L241.353,827.167C226.392,833.333,196.471,845.667,195.855,857.746C195.238,869.825,223.927,881.65,238.271,887.563L252.615,893.476" id="L_Repo_Recovery_0" class="edge-thickness-normal edge-pattern-dotted edge-thickness-normal edge-pattern-solid flowchart-link" style="" marker-end="url(#mermaid-svg-97_flowchart-v2-pointEnd)"/></g><g class="edgeLabels"><g class="edgeLabel"><g class="label" transform="translate(0, 0)"><foreignObject width="0" height="0"><div xmlns="http://www.w3.org/1999/xhtml" class="labelBkg" style="display: table-cell; white-space: nowrap; line-height: 1.5; max-width: 200px; text-align: center;"><span class="edgeLabel"></span></div></foreignObject></g></g><g class="edgeLabel"><g class="label" transform="translate(0, 0)"><foreignObject width="0" height="0"><div xmlns="http://www.w3.org/1999/xhtml" class="labelBkg" style="display: table-cell; white-space: nowrap; line-height: 1.5; max-width: 200px; text-align: center;"><span class="edgeLabel"></span></div></foreignObject></g></g><g class="edgeLabel"><g class="label" transform="translate(0, 0)"><foreignObject width="0" height="0"><div xmlns="http://www.w3.org/1999/xhtml" class="labelBkg" style="display: table-cell; white-space: nowrap; line-height: 1.5; max-width: 200px; text-align: center;"><span class="edgeLabel"></span></div></foreignObject></g></g><g class="edgeLabel"><g class="label" transform="translate(0, 0)"><foreignObject width="0" height="0"><div xmlns="http://www.w3.org/1999/xhtml" class="labelBkg" style="display: table-cell; white-space: nowrap; line-height: 1.5; max-width: 200px; text-align: center;"><span class="edgeLabel"></span></div></foreignObject></g></g><g class="edgeLabel"><g class="label" transform="translate(0, 0)"><foreignObject width="0" height="0"><div xmlns="http://www.w3.org/1999/xhtml" class="labelBkg" style="display: table-cell; white-space: nowrap; line-height: 1.5; max-width: 200px; text-align: center;"><span class="edgeLabel"></span></div></foreignObject></g></g><g class="edgeLabel"><g class="label" transform="translate(0, 0)"><foreignObject width="0" height="0"><div xmlns="http://www.w3.org/1999/xhtml" class="labelBkg" style="display: table-cell; white-space: nowrap; line-height: 1.5; max-width: 200px; text-align: center;"><span class="edgeLabel"></span></div></foreignObject></g></g><g class="edgeLabel"><g class="label" transform="translate(0, 0)"><foreignObject width="0" height="0"><div xmlns="http://www.w3.org/1999/xhtml" class="labelBkg" style="display: table-cell; white-space: nowrap; line-height: 1.5; max-width: 200px; text-align: center;"><span class="edgeLabel"></span></div></foreignObject></g></g><g class="edgeLabel"><g class="label" transform="translate(0, 0)"><foreignObject width="0" height="0"><div xmlns="http://www.w3.org/1999/xhtml" class="labelBkg" style="display: table-cell; white-space: nowrap; line-height: 1.5; max-width: 200px; text-align: center;"><span class="edgeLabel"></span></div></foreignObject></g></g><g class="edgeLabel"><g class="label" transform="translate(0, 0)"><foreignObject width="0" height="0"><div xmlns="http://www.w3.org/1999/xhtml" class="labelBkg" style="display: table-cell; white-space: nowrap; line-height: 1.5; max-width: 200px; text-align: center;"><span class="edgeLabel"></span></div></foreignObject></g></g><g class="edgeLabel"><g class="label" transform="translate(0, 0)"><foreignObject width="0" height="0"><div xmlns="http://www.w3.org/1999/xhtml" class="labelBkg" style="display: table-cell; white-space: nowrap; line-height: 1.5; max-width: 200px; text-align: center;"><span class="edgeLabel"></span></div></foreignObject></g></g><g class="edgeLabel"><g class="label" transform="translate(0, 0)"><foreignObject width="0" height="0"><div xmlns="http://www.w3.org/1999/xhtml" class="labelBkg" style="display: table-cell; white-space: nowrap; line-height: 1.5; max-width: 200px; text-align: center;"><span class="edgeLabel"></span></div></foreignObject></g></g><g class="edgeLabel"><g class="label" transform="translate(0, 0)"><foreignObject width="0" height="0"><div xmlns="http://www.w3.org/1999/xhtml" class="labelBkg" style="display: table-cell; white-space: nowrap; line-height: 1.5; max-width: 200px; text-align: center;"><span class="edgeLabel"></span></div></foreignObject></g></g><g class="edgeLabel"><g class="label" transform="translate(0, 0)"><foreignObject width="0" height="0"><div xmlns="http://www.w3.org/1999/xhtml" class="labelBkg" style="display: table-cell; white-space: nowrap; line-height: 1.5; max-width: 200px; text-align: center;"><span class="edgeLabel"></span></div></foreignObject></g></g><g class="edgeLabel"><g class="label" transform="translate(0, 0)"><foreignObject width="0" height="0"><div xmlns="http://www.w3.org/1999/xhtml" class="labelBkg" style="display: table-cell; white-space: nowrap; line-height: 1.5; max-width: 200px; text-align: center;"><span class="edgeLabel"></span></div></foreignObject></g></g><g class="edgeLabel" transform="translate(435.16875076293945, 706)"><g class="label" transform="translate(-78.4437484741211, -12)"><foreignObject width="156.8874969482422" height="24"><div xmlns="http://www.w3.org/1999/xhtml" class="labelBkg" style="display: table-cell; white-space: nowrap; line-height: 1.5; max-width: 200px; text-align: center;"><span class="edgeLabel"><p>Writes transaction log</p></span></div></foreignObject></g></g><g class="edgeLabel" transform="translate(546.4031219482422, 858)"><g class="label" transform="translate(-83.10625457763672, -12)"><foreignObject width="166.21250915527344" height="24"><div xmlns="http://www.w3.org/1999/xhtml" class="labelBkg" style="display: table-cell; white-space: nowrap; line-height: 1.5; max-width: 200px; text-align: center;"><span class="edgeLabel"><p>Replays WAL on startup</p></span></div></foreignObject></g></g><g class="edgeLabel" transform="translate(166.54999923706055, 858)"><g class="label" transform="translate(-66.8187484741211, -12)"><foreignObject width="133.6374969482422" height="24"><div xmlns="http://www.w3.org/1999/xhtml" class="labelBkg" style="display: table-cell; white-space: nowrap; line-height: 1.5; max-width: 200px; text-align: center;"><span class="edgeLabel"><p>Notifies / Restores</p></span></div></foreignObject></g></g></g><g class="nodes"><g class="node default" id="flowchart-U-0" transform="translate(363.7750015258789, 72)"><rect class="basic label-container" style="" x="-111.2249984741211" y="-39" width="222.4499969482422" height="78"/><g class="label" style="" transform="translate(-81.2249984741211, -24)"><rect/><foreignObject width="162.4499969482422" height="48"><div xmlns="http://www.w3.org/1999/xhtml" style="display: table-cell; white-space: nowrap; line-height: 1.5; max-width: 200px; text-align: center;"><span class="nodeLabel"><p>User Interaction<br />(Console / Commands)</p></span></div></foreignObject></g></g><g class="node default" id="flowchart-AS-1" transform="translate(127.6937484741211, 262)"><rect class="basic label-container" style="" x="-84.69375228881836" y="-51" width="169.38750457763672" height="102"/><g class="label" style="" transform="translate(-54.69375228881836, -36)"><rect/><foreignObject width="109.38750457763672" height="72"><div xmlns="http://www.w3.org/1999/xhtml" style="display: table-cell; white-space: nowrap; line-height: 1.5; max-width: 200px; text-align: center;"><span class="nodeLabel"><p>AccountService<br />• deposit()<br />• withdraw()</p></span></div></foreignObject></g></g><g class="node default" id="flowchart-TS-2" transform="translate(610.5468788146973, 262)"><rect class="basic label-container" style="" x="-95.73125457763672" y="-51" width="191.46250915527344" height="102"/><g class="label" style="" transform="translate(-65.73125457763672, -36)"><rect/><foreignObject width="131.46250915527344" height="72"><div xmlns="http://www.w3.org/1999/xhtml" style="display: table-cell; white-space: nowrap; line-height: 1.5; max-width: 200px; text-align: center;"><span class="nodeLabel"><p>TransferService<br />• transfer()<br />• Total Lock Order</p></span></div></foreignObject></g></g><g class="node default" id="flowchart-Acc-3" transform="translate(139.109375, 452)"><rect class="basic label-container" style="" x="-86.10000228881836" y="-39" width="172.20000457763672" height="78"/><g class="label" style="" transform="translate(-56.10000228881836, -24)"><rect/><foreignObject width="112.20000457763672" height="48"><div xmlns="http://www.w3.org/1999/xhtml" style="display: table-cell; white-space: nowrap; line-height: 1.5; max-width: 200px; text-align: center;"><span class="nodeLabel"><p>Account<br />🔒 Thread-safe</p></span></div></foreignObject></g></g><g class="node default" id="flowchart-Mon-4" transform="translate(357.0406265258789, 452)"><rect class="basic label-container" style="" x="-81.83124923706055" y="-39" width="163.6624984741211" height="78"/><g class="label" style="" transform="translate(-51.83124923706055, -24)"><rect/><foreignObject width="103.6624984741211" height="48"><div xmlns="http://www.w3.org/1999/xhtml" style="display: table-cell; white-space: nowrap; line-height: 1.5; max-width: 200px; text-align: center;"><span class="nodeLabel"><p>Money<br />🧊 Immutable</p></span></div></foreignObject></g></g><g class="node default" id="flowchart-Tx-5" transform="translate(613.3937530517578, 452)"><rect class="basic label-container" style="" x="-81.83124923706055" y="-39" width="163.6624984741211" height="78"/><g class="label" style="" transform="translate(-51.83124923706055, -24)"><rect/><foreignObject width="103.6624984741211" height="48"><div xmlns="http://www.w3.org/1999/xhtml" style="display: table-cell; white-space: nowrap; line-height: 1.5; max-width: 200px; text-align: center;"><span class="nodeLabel"><p>Transaction<br />🧊 Immutable</p></span></div></foreignObject></g></g><g class="node default" id="flowchart-Repo-6" transform="translate(350.92812728881836, 782)"><rect class="basic label-container" style="" x="-97.3375015258789" y="-39" width="194.6750030517578" height="78"/><g class="label" style="" transform="translate(-67.3375015258789, -24)"><rect/><foreignObject width="134.6750030517578" height="48"><div xmlns="http://www.w3.org/1999/xhtml" style="display: table-cell; white-space: nowrap; line-height: 1.5; max-width: 200px; text-align: center;"><span class="nodeLabel"><p>AccountRepository<br />(In-Memory + WAL)</p></span></div></foreignObject></g></g><g class="node default" id="flowchart-Logger-7" transform="translate(435.16875076293945, 630)"><rect class="basic label-container" style="" x="-107.7874984741211" y="-39" width="215.5749969482422" height="78"/><g class="label" style="" transform="translate(-77.7874984741211, -24)"><rect/><foreignObject width="155.5749969482422" height="48"><div xmlns="http://www.w3.org/1999/xhtml" style="display: table-cell; white-space: nowrap; line-height: 1.5; max-width: 200px; text-align: center;"><span class="nodeLabel"><p>TransactionLogger<br />(Single-Writer Queue)</p></span></div></foreignObject></g></g><g class="node default" id="flowchart-Recovery-8" transform="translate(350.92812728881836, 934)"><rect class="basic label-container" style="" x="-107.5250015258789" y="-39" width="215.0500030517578" height="78"/><g class="label" style="" transform="translate(-77.5250015258789, -24)"><rect/><foreignObject width="155.0500030517578" height="48"><div xmlns="http://www.w3.org/1999/xhtml" style="display: table-cell; white-space: nowrap; line-height: 1.5; max-width: 200px; text-align: center;"><span class="nodeLabel"><p>RecoveryService<br />(WAL Replay on Start)</p></span></div></foreignObject></g></g></g></g></g></svg>